<svg id="Слой_1" data-name="Слой 1" xmlns="http://www.w3.org/2000/svg" viewBox="0 0 250 250"><defs><style>.cls-1{fill:#8e2e2e;}.cls-1,.cls-3,.cls-4,.cls-5,.cls-6,.cls-7{stroke:#082947;}.cls-1,.cls-2,.cls-3,.cls-4,.cls-5,.cls-6,.cls-7{stroke-miterlimit:10;}.cls-1,.cls-2,.cls-3,.cls-6{stroke-width:4px;}.cls-2,.cls-3{fill:#f2ebd9;}.cls-2{stroke:#ff6e1d;}.cls-4{fill:#f4ec92;}.cls-4,.cls-7{stroke-width:2px;}.cls-5{fill:#fff;stroke-width:0.5px;}.cls-6{fill:#d84141;}.cls-7{fill:#082947;}</style></defs><title>bestprice</title><path class="cls-1" d="M23,123.32H5.33c-1,0-1.79-.68-1.49-1.35,2.19-4.81,8.51-19.27,8.51-19.88S5.85,87.17,3.75,82.2c-.28-.67.46-1.34,1.5-1.34H23c.86,0,1.55.47,1.55,1v40.36C24.53,122.85,23.84,123.32,23,123.32Z"/><path class="cls-1" d="M226,123.32h17.65c1,0,1.79-.68,1.49-1.35-2.19-4.81-8.51-19.27-8.51-19.88s6.5-14.92,8.6-19.89c.28-.67-.46-1.34-1.5-1.34H226c-.86,0-1.55.47-1.55,1v40.36C224.47,122.85,225.16,123.32,226,123.32Z"/><polygon class="cls-2" points="148.22 36.05 100.88 36.05 59.87 59.72 36.2 100.72 36.2 148.07 59.87 189.07 100.88 212.75 148.22 212.75 189.23 189.07 212.9 148.07 212.9 100.72 189.23 59.72 148.22 36.05"/><polygon class="cls-3" points="79.25 45.93 46.08 79.09 33.95 124.39 46.08 169.7 79.25 202.86 124.55 215 169.85 202.86 203.02 169.7 215.15 124.39 203.02 79.09 169.85 45.93 124.55 33.79 79.25 45.93"/><path class="cls-4" d="M124.15,167.88V156.7c0-1.06-55.35-1.06-55.35,1.06v10.11c0,3.82,12.39,6.92,27.68,6.92S124.15,171.7,124.15,167.88Z"/><ellipse class="cls-4" cx="96.47" cy="157.24" rx="27.68" ry="6.92"/><rect class="cls-5" x="79.44" y="166.28" width="2.13" height="4.26" rx="1" ry="1"/><rect class="cls-5" x="90.09" y="167.35" width="2.13" height="4.26" rx="1" ry="1"/><rect class="cls-5" x="100.73" y="167.35" width="2.13" height="4.26" rx="1" ry="1"/><rect class="cls-5" x="111.38" y="166.28" width="2.13" height="4.26" rx="1" ry="1"/><path d="M102.28,154.44q-4.23.34-6.91.79a7.23,7.23,0,0,1-1.11.13c-.19,0-.31-.07-.35-.13s0-.12.15-.16.88-.18,2.12-.36,3-.38,5.3-.59,3.85-.33,4.69-.34a16.08,16.08,0,0,1,2.57.17q.69.1.32.23l-.48.15h0l-6.25,1.52-7.81,1.88q-4.48,1.07-7.75,1.82t-3.82.8a11,11,0,0,1-1.65,0c-.74-.06-1.51-.14-2.31-.26q-.73-.11-.36-.23a10.68,10.68,0,0,1,1.19-.28Q88.66,157.67,102.28,154.44Z"/><path class="cls-4" d="M181.63,167.88V156.7c0-1.06-55.35-1.06-55.35,1.06v10.11c0,3.82,12.39,6.92,27.68,6.92S181.63,171.7,181.63,167.88Z"/><ellipse class="cls-4" cx="153.96" cy="157.24" rx="27.68" ry="6.92"/><rect class="cls-5" x="136.92" y="166.28" width="2.13" height="4.26" rx="1" ry="1"/><rect class="cls-5" x="147.57" y="167.35" width="2.13" height="4.26" rx="1" ry="1"/><rect class="cls-5" x="158.21" y="167.35" width="2.13" height="4.26" rx="1" ry="1"/><rect class="cls-5" x="168.86" y="166.28" width="2.13" height="4.26" rx="1" ry="1"/><path d="M141,159.09a31.25,31.25,0,0,1,3.61.28l1.85.35,1.89.35a9.11,9.11,0,0,0,1.63.09,12.09,12.09,0,0,0,2-.28,2,2,0,0,1,.5-.07,1.14,1.14,0,0,1,.41.13c.1.06.12.1.06.12q-.5.17-2.94.62a31.77,31.77,0,0,1-3.81.53,14.83,14.83,0,0,1-3-.16l-2.29-.43-2.33-.43q-1.38-.2-2.23-.24l-.92,0q-.2,0,.09-.12a18.35,18.35,0,0,1,2.09-.55q1.19-.24,3.73-.56t6.86-.72l3.16-.29q3.78-.36,6.28-.82a32.69,32.69,0,0,0,4.31-1.07q1.53-.51,1.72-.93c.13-.28-.21-.48-1-.6a12,12,0,0,0-2.86,0,13.54,13.54,0,0,0-2.93.57q-1,.34-.86.74c.07.14,0,.24-.21.31a9.2,9.2,0,0,1-2,.17,16.24,16.24,0,0,1-2.29-.07c-.36-.05-.49-.16-.38-.32a1.92,1.92,0,0,1,.93-.5,31.07,31.07,0,0,1,6.89-1.22,31.94,31.94,0,0,1,7.11,0c1.49.22,2.24.56,2.24,1s-.75.95-2.24,1.45a25.59,25.59,0,0,1-4.28,1q-2.48.38-5,.56t-6.21.4q-3.74.21-5.84.36T141,159.09Z"/><path class="cls-4" d="M145.44,157.24V146.06c0-1.06-55.35-1.06-55.35,1.06v10.11c0,3.82,12.39,6.92,27.68,6.92S145.44,161.06,145.44,157.24Z"/><ellipse class="cls-4" cx="117.76" cy="146.59" rx="27.68" ry="6.92"/><rect class="cls-5" x="100.73" y="155.64" width="2.13" height="4.26" rx="1.06" ry="1.06"/><rect class="cls-5" x="111.38" y="156.7" width="2.13" height="4.26" rx="1" ry="1"/><rect class="cls-5" x="122.02" y="156.7" width="2.13" height="4.26" rx="1.06" ry="1.06"/><rect class="cls-5" x="132.67" y="155.64" width="2.13" height="4.26" rx="1.06" ry="1.06"/><path d="M134.85,144a36.41,36.41,0,0,1-3.75.76,15.93,15.93,0,0,1-2.58.17,21.38,21.38,0,0,1-2.4-.23q-1.37-.2-3-.55l-5.82,1.38a26.93,26.93,0,0,1,2.68.23q2.52.37,2.47,1.2t-2.67,1.71A38,38,0,0,1,104.6,150q-2.52-.37-2.7-1c-.12-.43.33-.82,1.34-1.16a7.06,7.06,0,0,1,.9-.24,6.74,6.74,0,0,1,1-.1l1.85,0a14.2,14.2,0,0,1,1.55,0c.22,0,.22.09,0,.17l-1.21.33-1.22.33q-1.2.4-1.3.77t1,.52a16,16,0,0,0,4.44-.24,34.65,34.65,0,0,0,5.62-1.36q1.89-.63,2-1.13c.07-.33-.46-.58-1.6-.75-.52-.08-1-.12-1.31-.14l-.67,0q-.26,0,0-.13l.94-.23,10.62-2.5a4.84,4.84,0,0,1,1.58-.2l.39.1a19,19,0,0,0,2.64.55Q132.32,143.85,134.85,144Z"/><path class="cls-6" d="M224.52,119.46c-34.88,0-70.15,8.49-105,8.49-31.76,0-63.14-8.49-94.9-8.49L16,85.49c34.93,0,70.06,5.4,105,5.4,37.38,0,74.56-5.4,111.93-5.4Z"/><path class="cls-7" d="M67.53,96.25a23.4,23.4,0,0,1,4.09.2,7.67,7.67,0,0,1,4.56,1.8,3.59,3.59,0,0,1,1.09,3.12,4,4,0,0,1-3.38,3.32v0A4.43,4.43,0,0,1,77,109.35a4.35,4.35,0,0,1-1.88,3.17c-1.33.93-3.44,1.18-6.35.8a27.07,27.07,0,0,1-3.54-.68Zm1.29,7.13,2,.27c2.38.31,3.92-.72,4.11-2.33.24-2-1.21-2.91-3.45-3.2a10.16,10.16,0,0,0-2-.11Zm-1.07,8a12.75,12.75,0,0,0,1.91.35c2.37.31,4.66-.25,4.95-2.68s-1.67-3.46-4.14-3.78L68.61,105Z"/><path class="cls-7" d="M89.5,107.47c-2.73-.23-4.1-.36-6.83-.63l-.61,6c3.08.31,4.63.45,7.72.7l-.15,1.82c-4-.33-6-.52-10.06-.95l1.77-16.73c3.71.39,5.57.57,9.28.88l-.15,1.82c-2.84-.24-4.26-.37-7.1-.65l-.53,5.29c2.72.27,4.08.4,6.8.63Z"/><path class="cls-7" d="M92.52,113a8.4,8.4,0,0,0,4,1.39c2.36.16,3.8-.94,3.9-2.63s-.82-2.56-3.12-3.54c-2.76-1.18-4.46-2.72-4.28-5.08.2-2.61,2.57-4.38,5.91-4.17a8.16,8.16,0,0,1,3.76,1l-.71,1.74a7.19,7.19,0,0,0-3.24-1c-2.36-.15-3.35,1.15-3.43,2.3-.11,1.57.89,2.42,3.25,3.47,2.89,1.28,4.34,2.72,4.22,5.19s-2.3,4.74-6.53,4.46a9.58,9.58,0,0,1-4.49-1.4Z"/><path class="cls-7" d="M109.71,101.59c-2.11-.08-3.16-.12-5.26-.23l.09-1.84c5.1.25,7.65.34,12.76.43l0,1.85c-2.12,0-3.18-.07-5.29-.13l-.47,15-2.34-.08Z"/><path class="cls-7" d="M124.64,100.23a28.28,28.28,0,0,1,4.27-.34,7.45,7.45,0,0,1,4.86,1.32,4.54,4.54,0,0,1,1.6,3.48,4.87,4.87,0,0,1-1.27,3.62,7.48,7.48,0,0,1-5.36,1.93,8.09,8.09,0,0,1-1.84-.14l0,6.74h-2.32C124.63,110.2,124.63,106.88,124.64,100.23Zm2.26,8.11a7.79,7.79,0,0,0,1.88.16c2.74,0,4.39-1.33,4.34-3.66s-1.68-3.26-4.15-3.24a9.85,9.85,0,0,0-2.11.19Z"/><path class="cls-7" d="M138.26,100a25.1,25.1,0,0,1,4.26-.51c2.38-.1,3.93.25,5.06,1.13a4.19,4.19,0,0,1,1.54,3.11,4.42,4.42,0,0,1-3.07,4.46v.07c1.38.38,2.25,1.54,2.77,3.25a24.25,24.25,0,0,0,1.64,4.53l-2.39.13a19.45,19.45,0,0,1-1.4-4c-.65-2.27-1.63-3.11-3.7-3.1l-2.15.09.27,7.28-2.31.08Zm2.51,7.58,2.32-.09c2.42-.1,3.89-1.46,3.79-3.38-.11-2.17-1.79-3-4.14-3a9.4,9.4,0,0,0-2.2.29Z"/><path class="cls-7" d="M154.23,99l1.18,16.78-2.31.16L152,99.15Z"/><path class="cls-7" d="M171.89,113.75a11.86,11.86,0,0,1-4.63,1.28c-5,.49-9.08-2.21-9.5-7.71-.41-5.25,3-9.07,8.29-9.6a9.71,9.71,0,0,1,4.16.32l-.35,1.82a8.53,8.53,0,0,0-3.55-.33c-4,.4-6.52,3.13-6.16,7.53.34,4.1,3.08,6.55,7.41,6.12a9.56,9.56,0,0,0,3.68-1.08Z"/><path class="cls-7" d="M183,105c-2.72.38-4.08.55-6.8.88l.73,6c3.08-.37,4.62-.58,7.69-1l.25,1.8c-4,.56-6,.82-10,1.28L172.9,97.26c3.71-.43,5.56-.67,9.26-1.18l.25,1.8c-2.83.39-4.24.58-7.07.92l.64,5.28c2.71-.33,4.07-.51,6.78-.88Z"/></svg>