<svg id="Слой_1" data-name="Слой 1" xmlns="http://www.w3.org/2000/svg" xmlns:xlink="http://www.w3.org/1999/xlink" viewBox="0 0 250 250"><defs><style>.cls-1{fill:none;}.cls-2{fill:#f4ec92;}.cls-2,.cls-4,.cls-6,.cls-7,.cls-8,.cls-9{stroke:#082947;stroke-miterlimit:10;}.cls-2,.cls-4,.cls-6,.cls-7,.cls-9{stroke-width:4px;}.cls-3{clip-path:url(#clip-path);}.cls-4{fill:#fff;}.cls-5{fill:#082947;}.cls-6{fill:#f2ebd9;}.cls-7,.cls-8{fill:#ff6e1d;}.cls-9{fill:#185f8d;}</style><clipPath id="clip-path"><path class="cls-1" d="M28,233c0-55.23,43.43-100,97-100s97,44.77,97,100Z"/></clipPath></defs><title>builder</title><path class="cls-2" d="M28,231c0-55.23,43.43-100,97-100s97,44.77,97,100Z"/><g class="cls-3"><polygon class="cls-4" points="125.39 183.5 164.59 129 86.2 129 125.39 183.5"/></g><polygon class="cls-5" points="94.65 139.22 92.78 138.71 93.27 136.78 95.14 137.29 94.65 139.22"/><polygon class="cls-5" points="158.38 137.91 157.09 139.41 155.64 138.09 156.93 136.59 158.38 137.91"/><circle class="cls-6" cx="124.29" cy="82.18" r="39.82"/><path class="cls-7" d="M77,69.5a47.5,47.5,0,0,1,95,0Z"/><rect class="cls-2" x="125" y="19" width="11" height="50" rx="4.5" ry="4.5"/><rect class="cls-2" x="114" y="19" width="11" height="50" rx="4.5" ry="4.5"/><rect class="cls-2" x="172" y="68" height="54"/><rect class="cls-2" x="77" y="68" height="54"/><path class="cls-8" d="M130.71,77l29-5.25a1.62,1.62,0,0,0-.29-3.22H90.56a1.62,1.62,0,0,0-.29,3.22l29,5.25A32.09,32.09,0,0,0,130.71,77Z"/><rect class="cls-9" x="87" y="140" width="6" height="91"/><rect class="cls-9" x="158" y="141" width="6" height="90"/><rect class="cls-9" x="93" y="192" width="65" height="38"/></svg>