<svg id="Слой_1" data-name="Слой 1" xmlns="http://www.w3.org/2000/svg" viewBox="0 0 250 250"><defs><style>.cls-1{fill:#ff6e1d;}.cls-1,.cls-2,.cls-4,.cls-5,.cls-6{stroke:#082947;stroke-miterlimit:10;stroke-width:4px;}.cls-2{fill:#fff;}.cls-3{fill:#082947;}.cls-4{fill:#f4ec92;}.cls-5{fill:#6da8d6;}.cls-6{fill:#185f8d;}</style></defs><title>clock</title><circle class="cls-1" cx="127.5" cy="124.5" r="117.5"/><circle class="cls-2" cx="127.5" cy="124.5" r="106.5"/><rect class="cls-3" x="125" y="30" width="5" height="20" rx="2" ry="2" transform="translate(255 80) rotate(-180)"/><rect class="cls-3" x="125" y="199" width="5" height="20" rx="2" ry="2" transform="translate(255 418) rotate(-180)"/><rect class="cls-3" x="40" y="115" width="5" height="20" rx="2" ry="2" transform="translate(-82.5 167.5) rotate(-90)"/><rect class="cls-3" x="210" y="115" width="5" height="20" rx="2" ry="2" transform="translate(87.5 337.5) rotate(-90)"/><circle class="cls-4" cx="127" cy="124" r="8"/><rect class="cls-5" x="108.9" y="77.84" width="77.69" height="7.33" transform="translate(10.35 179.45) rotate(-64.37)"/><rect class="cls-6" x="118.41" y="148.06" width="44.62" height="7.33" transform="translate(210.23 -43.18) rotate(62.47)"/><rect class="cls-3" x="72" y="96" width="59" height="4" rx="2" ry="2" transform="translate(99.03 -43.07) rotate(45)"/></svg>