<svg id="Слой_1" data-name="Слой 1" xmlns="http://www.w3.org/2000/svg" viewBox="0 0 250 250"><defs><style>.cls-1{fill:#6da8d6;}.cls-1,.cls-2,.cls-5,.cls-6{stroke:#082947;stroke-miterlimit:10;stroke-width:4px;}.cls-2,.cls-4{fill:#f2ebd9;}.cls-3{fill:#082947;}.cls-5{fill:#d84141;}.cls-6{fill:#8e2e2e;}</style></defs><title>guarantee</title><path class="cls-1" d="M174,63V33a12,12,0,0,1,12-12h8a12,12,0,0,1,12,12V63Z"/><path class="cls-1" d="M206,169v30a12,12,0,0,1-12,12h-8a12,12,0,0,1-12-12V169Z"/><path class="cls-2" d="M187.76,211H62.65C55.14,211,49,205.6,49,199V33c0-6.6,6.14-12,13.65-12H187.76c7.51,0-9.1,0-9.1,12V199C177.53,211,195.27,211,187.76,211Z"/><rect class="cls-3" x="75" y="72" width="82" height="4" rx="1.5" ry="1.5"/><rect class="cls-3" x="75" y="82" width="82" height="4" rx="1.5" ry="1.5"/><rect class="cls-3" x="91" y="92" width="50" height="4" rx="1.5" ry="1.5"/><rect class="cls-3" x="75.47" y="42.42" width="18.94" height="3.59" rx="1.5" ry="1.5" transform="translate(-6.39 73.01) rotate(-45)"/><rect class="cls-3" x="86.24" y="42.42" width="18.94" height="3.59" rx="1.5" ry="1.5" transform="translate(132.13 143.17) rotate(-135)"/><rect class="cls-3" x="102.41" y="42.42" width="18.94" height="3.59" rx="1.5" ry="1.5" transform="translate(1.5 92.06) rotate(-45)"/><rect class="cls-3" x="113.18" y="42.42" width="18.94" height="3.59" rx="1.5" ry="1.5" transform="translate(178.11 162.22) rotate(-135)"/><rect class="cls-3" x="129.35" y="42.42" width="18.94" height="3.59" rx="1.5" ry="1.5" transform="translate(9.39 111.11) rotate(-45)"/><rect class="cls-3" x="140.12" y="42.42" width="18.94" height="3.59" rx="1.5" ry="1.5" transform="translate(224.1 181.27) rotate(-135)"/><rect class="cls-4" x="124" y="72" width="10" height="4"/><path class="cls-5" d="M116.77,217H116c-.82.82-8.19,8.19-18.83,19.65V171.2a9.85,9.85,0,0,1,9.82-9.82h17.19A9.85,9.85,0,0,1,134,171.2v65.48C125.78,227.68,134,236.69,116.77,217Z"/><circle class="cls-6" cx="115.55" cy="167.55" r="25.55"/><circle class="cls-5" cx="115.55" cy="167.55" r="13.66"/></svg>