<svg id="Слой_1" data-name="Слой 1" xmlns="http://www.w3.org/2000/svg" viewBox="0 0 250 250"><defs><style>.cls-1{fill:#ff6e1d;}.cls-1,.cls-2,.cls-3{stroke:#082947;stroke-miterlimit:10;stroke-width:4px;}.cls-2{fill:#f2ebd9;}.cls-3{fill:#f4ec92;}</style></defs><title>production</title><rect class="cls-1" x="123.45" y="53.67" width="36.14" height="36.14" rx="12" ry="12" transform="translate(92.18 -79.06) rotate(45)"/><rect class="cls-1" x="75.27" y="33.79" width="36.14" height="36.14" rx="12" ry="12"/><rect class="cls-1" x="75.27" y="169.91" width="36.14" height="36.14" rx="12" ry="12"/><rect class="cls-1" x="143.39" y="101.79" width="36.14" height="36.14" rx="12" ry="12"/><rect class="cls-1" x="6.66" y="101.79" width="36.14" height="36.14" rx="12" ry="12"/><rect class="cls-1" x="27.2" y="149.92" width="36.14" height="36.14" rx="12" ry="12" transform="translate(132.05 17.19) rotate(45)"/><rect class="cls-1" x="123.45" y="149.92" width="36.14" height="36.14" rx="12" ry="12" transform="translate(160.24 -50.87) rotate(45)"/><rect class="cls-1" x="27.2" y="53.67" width="36.14" height="36.14" rx="12" ry="12" transform="translate(63.99 -11) rotate(45)"/><path class="cls-2" d="M143.44,169.91a70.77,70.77,0,1,1,0-100.09A70.77,70.77,0,0,1,143.44,169.91Z"/><path class="cls-3" d="M106.17,132.64a18.07,18.07,0,1,1,0-25.55A18.07,18.07,0,0,1,106.17,132.64Z"/><rect class="cls-1" x="208.51" y="94.14" width="17.16" height="17.16" rx="8.58" ry="8.58" transform="translate(457.05 112.57) rotate(157.03)"/><rect class="cls-1" x="225.84" y="76.47" width="17.16" height="17.16" rx="8.58" ry="8.58" transform="translate(401.19 -100.36) rotate(112.03)"/><rect class="cls-1" x="165.91" y="52.22" width="17.16" height="17.16" rx="8.58" ry="8.58" transform="translate(296.3 -78.15) rotate(112.03)"/><rect class="cls-1" x="183.77" y="94.34" width="17.16" height="17.16" rx="8.58" ry="8.58" transform="translate(359.9 -36.78) rotate(112.03)"/><rect class="cls-1" x="208.12" y="34.15" width="17.16" height="17.16" rx="8.58" ry="8.58" transform="translate(337.6 -142.13) rotate(112.03)"/><rect class="cls-1" x="183.28" y="34.62" width="17.16" height="17.16" rx="8.58" ry="8.58" transform="translate(385.36 8.1) rotate(157.03)"/><rect class="cls-1" x="166.13" y="76.99" width="17.16" height="17.16" rx="8.58" ry="8.58" transform="translate(368.97 96.18) rotate(157.03)"/><rect class="cls-1" x="225.65" y="51.76" width="17.16" height="17.16" rx="8.58" ry="8.58" transform="translate(473.44 24.49) rotate(157.03)"/><path class="cls-2" d="M173.53,86.08a33.61,33.61,0,1,1,44.06,17.83A33.61,33.61,0,0,1,173.53,86.08Z"/><path class="cls-3" d="M196.57,76.31a8.58,8.58,0,1,1,11.25,4.55A8.58,8.58,0,0,1,196.57,76.31Z"/><rect class="cls-1" x="208.51" y="186.58" width="17.16" height="17.16" rx="8.58" ry="8.58" transform="translate(493.13 290.12) rotate(157.03)"/><rect class="cls-1" x="225.84" y="168.91" width="17.16" height="17.16" rx="8.58" ry="8.58" transform="translate(486.88 26.75) rotate(112.03)"/><rect class="cls-1" x="165.91" y="144.66" width="17.16" height="17.16" rx="8.58" ry="8.58" transform="translate(382 48.96) rotate(112.03)"/><rect class="cls-1" x="183.77" y="186.78" width="17.16" height="17.16" rx="8.58" ry="8.58" transform="translate(445.6 90.33) rotate(112.03)"/><rect class="cls-1" x="208.12" y="126.59" width="17.16" height="17.16" rx="8.58" ry="8.58" transform="translate(423.29 -15.01) rotate(112.03)"/><rect class="cls-1" x="183.28" y="127.06" width="17.16" height="17.16" rx="8.58" ry="8.58" transform="translate(421.44 185.65) rotate(157.03)"/><rect class="cls-1" x="166.13" y="169.43" width="17.16" height="17.16" rx="8.58" ry="8.58" transform="translate(405.05 273.73) rotate(157.03)"/><rect class="cls-1" x="225.65" y="144.2" width="17.16" height="17.16" rx="8.58" ry="8.58" transform="translate(509.52 202.04) rotate(157.03)"/><path class="cls-2" d="M173.53,178.52a33.61,33.61,0,1,1,44.06,17.83A33.61,33.61,0,0,1,173.53,178.52Z"/><path class="cls-3" d="M196.57,168.75a8.58,8.58,0,1,1,11.25,4.55A8.58,8.58,0,0,1,196.57,168.75Z"/><rect class="cls-1" x="204.87" y="123.19" width="3.03" height="3.03" rx="1.52" ry="1.52" transform="translate(445.07 158.98) rotate(157.03)"/><rect class="cls-1" x="207.93" y="120.07" width="3.03" height="3.03" rx="1.52" ry="1.52" transform="translate(400.71 -26.96) rotate(112.03)"/><rect class="cls-1" x="197.35" y="115.79" width="3.03" height="3.03" rx="1.52" ry="1.52" transform="translate(382.19 -23.04) rotate(112.03)"/><rect class="cls-1" x="200.5" y="123.23" width="3.03" height="3.03" rx="1.52" ry="1.52" transform="translate(393.42 -15.74) rotate(112.03)"/><rect class="cls-1" x="204.8" y="112.6" width="3.03" height="3.03" rx="1.52" ry="1.52" transform="translate(389.48 -34.34) rotate(112.03)"/><rect class="cls-1" x="200.41" y="112.68" width="3.03" height="3.03" rx="1.52" ry="1.52" transform="translate(432.41 140.53) rotate(157.03)"/><rect class="cls-1" x="197.38" y="120.16" width="3.03" height="3.03" rx="1.52" ry="1.52" transform="translate(429.51 156.08) rotate(157.03)"/><rect class="cls-1" x="207.89" y="115.71" width="3.03" height="3.03" rx="1.52" ry="1.52" transform="translate(447.96 143.43) rotate(157.03)"/><path class="cls-2" d="M198.69,121.77a5.93,5.93,0,1,1,7.78,3.15A5.93,5.93,0,0,1,198.69,121.77Z"/><path class="cls-3" d="M202.76,120a1.52,1.52,0,1,1,2,.8A1.52,1.52,0,0,1,202.76,120Z"/></svg>