<svg id="Слой_1" data-name="Слой 1" xmlns="http://www.w3.org/2000/svg" viewBox="0 0 250 250"><defs><style>.cls-1{fill:#082947;}.cls-2{fill:#f2ebd9;}.cls-2,.cls-3,.cls-4,.cls-5,.cls-6{stroke:#082947;stroke-miterlimit:10;}.cls-2,.cls-3,.cls-4{stroke-width:5px;}.cls-3{fill:none;}.cls-4{fill:#185f8d;}.cls-5{fill:#6da8d6;}.cls-5,.cls-6{stroke-width:4px;}.cls-6{fill:#f4ec92;}</style></defs><title>sale</title><path class="cls-1" d="M56.5,171h122c3.86,0,3.87-6,0-6H56.5c-3.86,0-3.87,6,0,6Z"/><path class="cls-1" d="M181.29,169.45l59.83-59.83c2.73-2.73-1.51-7-4.24-4.24L177,165.21c-2.73,2.73,1.51,7,4.24,4.24Z"/><path class="cls-1" d="M241.88,107.38V55c0-3.86-6-3.87-6,0v52.38c0,3.86,6,3.87,6,0Z"/><path class="cls-1" d="M238.67,52H57.33c-3.86,0-3.87,6,0,6H238.67c3.86,0,3.87-6,0-6Z"/><path class="cls-1" d="M53.33,55v83.33c0,3.86,6,3.87,6,0V55c0-3.86-6-3.87-6,0Z"/><path class="cls-1" d="M59.33,54.67V35.33c0-3.86-6-3.87-6,0V54.67c0,3.86,6,3.87,6,0Z"/><path class="cls-1" d="M55.33,31.67c-15.78,0-31.56-.16-47.33-.17-3.86,0-3.87,6,0,6,15.78,0,31.56.16,47.33.17,3.86,0,3.87-6,0-6Z"/><path class="cls-1" d="M4.5,34.5c-.56,8,8.08,12.85,15,13,3.86.09,3.86-5.91,0-6s-9.32-2.33-9-7c.27-3.85-5.73-3.84-6,0Z"/><path class="cls-1" d="M19.5,47.5h36c3.86,0,3.87-6,0-6h-36c-3.86,0-3.87,6,0,6Z"/><path class="cls-1" d="M13.5,45.5c.69,7.4,7.5,12,14.46,12h27.7c3.86,0,3.87-6,0-6H34.9c-4.94,0-14.72,1.37-15.4-6-.35-3.81-6.36-3.85-6,0Z"/><path class="cls-1" d="M52.67,168v13.67c0,3.86,6,3.87,6,0V168c0-3.86-6-3.87-6,0Z"/><circle class="cls-2" cx="55" cy="202" r="18.5"/><circle class="cls-3" cx="55" cy="202" r="3.5"/><circle class="cls-2" cx="160" cy="202" r="18.5"/><circle class="cls-3" cx="160" cy="202" r="3.5"/><path class="cls-1" d="M74.67,205.17H139c3.86,0,3.87-6,0-6H74.67c-3.86,0-3.87,6,0,6Z"/><rect class="cls-4" x="74.5" y="71.5" width="32" height="64"/><rect class="cls-5" x="124.5" y="71.5" width="32" height="64"/><path class="cls-6" d="M174.5,135.07V71.5h32c0,11.53.5,24,.5,35.5l-32.4,28.12A.06.06,0,0,1,174.5,135.07Z"/></svg>