<svg id="Слой_1" data-name="Слой 1" xmlns="http://www.w3.org/2000/svg" xmlns:xlink="http://www.w3.org/1999/xlink" viewBox="0 0 441 441"><defs><style>.cls-1{fill:none;}.cls-2{fill:#fff292;}.cls-3{fill:#ff8022;}.cls-4{clip-path:url(#clip-path);}.cls-5{fill:#3f3832;}</style><clipPath id="clip-path" transform="translate(-27.78 -35.98)"><path class="cls-1" d="M267.48,210.62a23.6,23.6,0,0,0-5.07-10,24.57,24.57,0,0,0-12.09-7.26v45.8q15.61,3.69,24.78,11.64Q287,261.1,287,277.2q0,14.95-9,25.23-9.56,11.06-27.71,14.17v22.32h-3.49V317.18l-10.09.58-8.73-.39v21.54h-3.49V316.79Q213.17,315,206.63,310a27.54,27.54,0,0,1-9.28-12.42,24.38,24.38,0,0,1-1.37-7.76,15.3,15.3,0,0,1,2.94-9.51q2.93-3.88,5.19-4.27a24,24,0,0,1,4-.39,10.62,10.62,0,0,1,7.44,2.5q3.52,3.27,3.52,9.62a7.85,7.85,0,0,1-2.74,6.34,9.18,9.18,0,0,1-6.06,2.31,7,7,0,0,1-2.84-.48,3.62,3.62,0,0,1-1.66-1.44,9.32,9.32,0,0,0-.19,2.16q0,5.09,5.27,10a29.43,29.43,0,0,0,13.67,6.86V259.15q-14.26-4.27-20.91-11.26-8-8.34-8-22.9,0-13.58,8.21-22.71,7.42-8.34,20.71-11.45v-7H228v6.21l6.21-.58c1.42-.13,2.78-.19,4.08-.19l8.54.39v-5.82h3.49v6.21a33.41,33.41,0,0,1,11.74,3.88,35,35,0,0,1,8.44,7.18,22.3,22.3,0,0,1,6,15.14q0,9.12-6.54,11.64a9.76,9.76,0,0,1-4,.78q-8.85,0-10-8.65a10.1,10.1,0,0,1,1.72-7.4,6.83,6.83,0,0,1,5.78-3.36,7.38,7.38,0,0,1,2.11.29A5.81,5.81,0,0,1,267.48,210.62Zm-43,22.91v-39.4q-7.38,2.32-11.06,6.18a16.82,16.82,0,0,0-4.66,12.17Q208.79,227.55,224.51,233.53ZM228,234.7q2.14.58,5.73,1.36t6.89,1.17l6.21,1V192.78l-8.15-.58q-3.11,0-5,.19t-5.63.78Zm0,79.38,5.82.39q6.6,0,13-.58V265.17l-13-3.3L228,260.32Zm22.32-1q10.29-2.73,14.85-8.67t4.56-14.71q0-9.94-4.46-14.91t-14.95-8.48Z"/></clipPath></defs><title>construction_trading</title><circle class="cls-2" cx="220.5" cy="220.5" r="220.5"/><rect class="cls-3" x="60.5" y="123" width="45" height="20" rx="5" ry="5"/><rect class="cls-3" x="110.5" y="123" width="45" height="20" rx="5" ry="5"/><rect class="cls-3" x="160.5" y="123" width="45" height="20" rx="5" ry="5"/><rect class="cls-3" x="85.5" y="148" width="45" height="20" rx="5" ry="5"/><rect class="cls-3" x="135.5" y="148" width="45" height="20" rx="5" ry="5"/><rect class="cls-3" x="185.5" y="148" width="45" height="20" rx="5" ry="5"/><rect class="cls-3" x="60.5" y="173" width="45" height="20" rx="5" ry="5"/><rect class="cls-3" x="110.5" y="173" width="45" height="20" rx="5" ry="5"/><rect class="cls-3" x="160.5" y="173" width="45" height="20" rx="5" ry="5"/><rect class="cls-3" x="85.5" y="198" width="45" height="20" rx="5" ry="5"/><rect class="cls-3" x="135.5" y="198" width="45" height="20" rx="5" ry="5"/><rect class="cls-3" x="185.5" y="198" width="45" height="20" rx="5" ry="5"/><rect class="cls-3" x="210.5" y="123" width="45" height="20" rx="5" ry="5"/><rect class="cls-3" x="260.5" y="123" width="45" height="20" rx="5" ry="5"/><rect class="cls-3" x="310.5" y="123" width="45" height="20" rx="5" ry="5"/><rect class="cls-3" x="235.5" y="148" width="45" height="20" rx="5" ry="5"/><rect class="cls-3" x="285.5" y="148" width="45" height="20" rx="5" ry="5"/><rect class="cls-3" x="335.5" y="148" width="45" height="20" rx="5" ry="5"/><rect class="cls-3" x="210.5" y="173" width="45" height="20" rx="5" ry="5"/><rect class="cls-3" x="260.5" y="173" width="45" height="20" rx="5" ry="5"/><rect class="cls-3" x="310.5" y="173" width="45" height="20" rx="5" ry="5"/><rect class="cls-3" x="235.5" y="198" width="45" height="20" rx="5" ry="5"/><rect class="cls-3" x="285.5" y="198" width="45" height="20" rx="5" ry="5"/><rect class="cls-3" x="335.5" y="198" width="45" height="20" rx="5" ry="5"/><rect class="cls-3" x="60.5" y="223" width="45" height="20" rx="5" ry="5"/><rect class="cls-3" x="110.5" y="223" width="45" height="20" rx="5" ry="5"/><rect class="cls-3" x="160.5" y="223" width="45" height="20" rx="5" ry="5"/><rect class="cls-3" x="85.5" y="248" width="45" height="20" rx="5" ry="5"/><rect class="cls-3" x="135.5" y="248" width="45" height="20" rx="5" ry="5"/><rect class="cls-3" x="185.5" y="248" width="45" height="20" rx="5" ry="5"/><rect class="cls-3" x="60.5" y="273" width="45" height="20" rx="5" ry="5"/><rect class="cls-3" x="110.5" y="273" width="45" height="20" rx="5" ry="5"/><rect class="cls-3" x="160.5" y="273" width="45" height="20" rx="5" ry="5"/><rect class="cls-3" x="85.5" y="298" width="45" height="20" rx="5" ry="5"/><rect class="cls-3" x="135.5" y="298" width="45" height="20" rx="5" ry="5"/><rect class="cls-3" x="185.5" y="298" width="45" height="20" rx="5" ry="5"/><rect class="cls-3" x="210.5" y="223" width="45" height="20" rx="5" ry="5"/><rect class="cls-3" x="260.5" y="223" width="45" height="20" rx="5" ry="5"/><rect class="cls-3" x="310.5" y="223" width="45" height="20" rx="5" ry="5"/><rect class="cls-3" x="235.5" y="248" width="45" height="20" rx="5" ry="5"/><rect class="cls-3" x="285.5" y="248" width="45" height="20" rx="5" ry="5"/><rect class="cls-3" x="335.5" y="248" width="45" height="20" rx="5" ry="5"/><rect class="cls-3" x="210.5" y="273" width="45" height="20" rx="5" ry="5"/><rect class="cls-3" x="260.5" y="273" width="45" height="20" rx="5" ry="5"/><rect class="cls-3" x="310.5" y="273" width="45" height="20" rx="5" ry="5"/><rect class="cls-3" x="235.5" y="298" width="45" height="20" rx="5" ry="5"/><rect class="cls-3" x="285.5" y="298" width="45" height="20" rx="5" ry="5"/><rect class="cls-3" x="335.5" y="298" width="45" height="20" rx="5" ry="5"/><g class="cls-4"><rect class="cls-5" x="60.54" y="123.05" width="45" height="20" rx="5" ry="5"/><rect class="cls-5" x="110.54" y="123.05" width="45" height="20" rx="5" ry="5"/><rect class="cls-5" x="160.54" y="123.05" width="45" height="20" rx="5" ry="5"/><rect class="cls-5" x="85.54" y="148.05" width="45" height="20" rx="5" ry="5"/><rect class="cls-5" x="135.54" y="148.05" width="45" height="20" rx="5" ry="5"/><rect class="cls-5" x="185.54" y="148.05" width="45" height="20" rx="5" ry="5"/><rect class="cls-5" x="60.54" y="173.05" width="45" height="20" rx="5" ry="5"/><rect class="cls-5" x="110.54" y="173.05" width="45" height="20" rx="5" ry="5"/><rect class="cls-5" x="160.54" y="173.05" width="45" height="20" rx="5" ry="5"/><rect class="cls-5" x="85.54" y="198.05" width="45" height="20" rx="5" ry="5"/><rect class="cls-5" x="135.54" y="198.05" width="45" height="20" rx="5" ry="5"/><rect class="cls-5" x="185.54" y="198.05" width="45" height="20" rx="5" ry="5"/><rect class="cls-5" x="210.54" y="123.05" width="45" height="20" rx="5" ry="5"/><rect class="cls-5" x="260.54" y="123.05" width="45" height="20" rx="5" ry="5"/><rect class="cls-5" x="310.54" y="123.05" width="45" height="20" rx="5" ry="5"/><rect class="cls-5" x="235.54" y="148.05" width="45" height="20" rx="5" ry="5"/><rect class="cls-5" x="285.54" y="148.05" width="45" height="20" rx="5" ry="5"/><rect class="cls-5" x="335.54" y="148.05" width="45" height="20" rx="5" ry="5"/><rect class="cls-5" x="210.54" y="173.05" width="45" height="20" rx="5" ry="5"/><rect class="cls-5" x="260.54" y="173.05" width="45" height="20" rx="5" ry="5"/><rect class="cls-5" x="310.54" y="173.05" width="45" height="20" rx="5" ry="5"/><rect class="cls-5" x="235.54" y="198.05" width="45" height="20" rx="5" ry="5"/><rect class="cls-5" x="285.54" y="198.05" width="45" height="20" rx="5" ry="5"/><rect class="cls-5" x="335.54" y="198.05" width="45" height="20" rx="5" ry="5"/><rect class="cls-5" x="60.54" y="223.05" width="45" height="20" rx="5" ry="5"/><rect class="cls-5" x="110.54" y="223.05" width="45" height="20" rx="5" ry="5"/><rect class="cls-5" x="160.54" y="223.05" width="45" height="20" rx="5" ry="5"/><rect class="cls-5" x="85.54" y="248.05" width="45" height="20" rx="5" ry="5"/><rect class="cls-5" x="135.54" y="248.05" width="45" height="20" rx="5" ry="5"/><rect class="cls-5" x="185.54" y="248.05" width="45" height="20" rx="5" ry="5"/><rect class="cls-5" x="60.54" y="273.05" width="45" height="20" rx="5" ry="5"/><rect class="cls-5" x="110.54" y="273.05" width="45" height="20" rx="5" ry="5"/><rect class="cls-5" x="160.54" y="273.05" width="45" height="20" rx="5" ry="5"/><rect class="cls-5" x="85.54" y="298.05" width="45" height="20" rx="5" ry="5"/><rect class="cls-5" x="135.54" y="298.05" width="45" height="20" rx="5" ry="5"/><rect class="cls-5" x="185.54" y="298.05" width="45" height="20" rx="5" ry="5"/><rect class="cls-5" x="210.54" y="223.05" width="45" height="20" rx="5" ry="5"/><rect class="cls-5" x="260.54" y="223.05" width="45" height="20" rx="5" ry="5"/><rect class="cls-5" x="310.54" y="223.05" width="45" height="20" rx="5" ry="5"/><rect class="cls-5" x="235.54" y="248.05" width="45" height="20" rx="5" ry="5"/><rect class="cls-5" x="285.54" y="248.05" width="45" height="20" rx="5" ry="5"/><rect class="cls-5" x="335.54" y="248.05" width="45" height="20" rx="5" ry="5"/><rect class="cls-5" x="210.54" y="273.05" width="45" height="20" rx="5" ry="5"/><rect class="cls-5" x="260.54" y="273.05" width="45" height="20" rx="5" ry="5"/><rect class="cls-5" x="310.54" y="273.05" width="45" height="20" rx="5" ry="5"/><rect class="cls-5" x="235.54" y="298.05" width="45" height="20" rx="5" ry="5"/><rect class="cls-5" x="285.54" y="298.05" width="45" height="20" rx="5" ry="5"/><rect class="cls-5" x="335.54" y="298.05" width="45" height="20" rx="5" ry="5"/></g></svg>