<svg id="Слой_1" data-name="Слой 1" xmlns="http://www.w3.org/2000/svg" xmlns:xlink="http://www.w3.org/1999/xlink" viewBox="0 0 541.27 589.26"><defs><style>.cls-1{fill:none;}.cls-2{fill:#6cf;}.cls-3{clip-path:url(#clip-path);}.cls-4{fill:url(#Безымянный_градиент_21);}.cls-5{fill:url(#Безымянный_градиент_21-2);}.cls-6{fill:#ffe106;}.cls-7{fill:#f63;}.cls-8{fill:#ffc;}.cls-9{fill:#877668;}.cls-10{fill:#630;}.cls-11{fill:#9cc;}.cls-12{fill:#c63;}.cls-13{fill:#9b8504;}.cls-14{fill:#ccc;}.cls-15{fill:#f96;}.cls-16{fill:#a8a29e;}.cls-17{fill:#989899;}</style><clipPath id="clip-path" transform="translate(-37 -19)"><circle class="cls-1" cx="257.5" cy="239.5" r="220.5"/></clipPath><linearGradient id="Безымянный_градиент_21" x1="180.21" y1="228.2" x2="503.55" y2="551.54" gradientUnits="userSpaceOnUse"><stop offset="0" stop-color="#6cf"/><stop offset="0" stop-color="#767b7f"/><stop offset="1" stop-color="#6cf" stop-opacity="0.1"/></linearGradient><linearGradient id="Безымянный_градиент_21-2" x1="76.11" y1="150.61" x2="152.68" y2="227.18" xlink:href="#Безымянный_градиент_21"/></defs><title>house_flat_design</title><circle class="cls-2" cx="220.5" cy="220.5" r="220.5"/><g class="cls-3"><polygon class="cls-4" points="296.26 589.26 84 376 315.76 118.73 541.27 344.24 296.26 589.26"/><polygon class="cls-5" points="101.35 238.35 48.07 184.82 111 123 162.85 176.85 101.35 238.35"/></g><rect class="cls-6" x="116" y="57" width="24" height="59"/><polygon class="cls-7" points="143 57 113 57 116 46 140 46 143 57"/><rect class="cls-8" x="90" y="176" width="250" height="200"/><polygon class="cls-8" points="215 50 90 176 340 176 215 50"/><polygon class="cls-9" points="222 67 214.42 59.71 90 184.25 90.05 200.29 222 67"/><polygon class="cls-9" points="208 68 215.58 60.71 340 185.25 339.95 201.29 208 68"/><polygon class="cls-10" points="231.36 43.36 210.14 22.14 48 185 89.73 184.99 231.36 43.36"/><polygon class="cls-10" points="198 43.36 219.21 22.14 381.36 185 339.63 184.99 198 43.36"/><circle class="cls-10" cx="213" cy="140" r="26"/><circle class="cls-11" cx="213" cy="140" r="24"/><rect class="cls-10" x="212" y="116" width="2" height="50"/><rect class="cls-10" x="188" y="139" width="50" height="2"/><rect class="cls-10" x="121" y="236.25" width="70" height="139.5"/><rect class="cls-12" x="124.38" y="240" width="63.25" height="136"/><rect class="cls-10" x="233" y="236.5" width="60" height="75"/><rect class="cls-11" x="236" y="239" width="54" height="70"/><rect class="cls-6" x="228" y="301" width="70" height="11"/><rect class="cls-13" x="228" y="312" width="70" height="3"/><rect class="cls-10" x="251" y="239" width="3" height="62"/><rect class="cls-14" x="84" y="365" width="262" height="11"/><rect class="cls-15" x="134.5" y="251" width="43" height="43"/><rect class="cls-15" x="134.5" y="311" width="43" height="43"/><circle class="cls-16" cx="171.5" cy="302.5" r="4.5"/><rect class="cls-17" x="121" y="365" width="70" height="11"/></svg>