<svg id="Слой_1" data-name="Слой 1" xmlns="http://www.w3.org/2000/svg" xmlns:xlink="http://www.w3.org/1999/xlink" viewBox="0 0 568.91 591.85"><defs><style>.cls-1{fill:none;}.cls-2{fill:#a9baff;}.cls-3{clip-path:url(#clip-path);}.cls-4{fill:url(#Безымянный_градиент_85);}.cls-5{fill:#fc9;}.cls-6{fill:#f4bf90;}.cls-7{fill:#d84839;}.cls-8{fill:#f49b51;}.cls-9{fill:#e58f4e;}.cls-10{fill:#ea8f4b;}.cls-11{fill:#cc7b44;}.cls-12{fill:#d6af92;}.cls-13{fill:#3a342e;}.cls-14,.cls-28{fill:#fff;}.cls-15{fill:#23683f;}.cls-16{fill:#070706;}.cls-17{fill:#bc7f51;}.cls-18{clip-path:url(#clip-path-2);}.cls-19{clip-path:url(#clip-path-3);}.cls-20{fill:#3d3d3d;}.cls-21{fill:#561c05;}.cls-22{fill:#4d4d99;}.cls-23{fill:#204422;}.cls-24{fill:#2d602e;}.cls-25{fill:#152316;}.cls-26{fill:#efe74d;}.cls-27{fill:#eab38b;}.cls-28{stroke:#000;stroke-miterlimit:10;}</style><clipPath id="clip-path" transform="translate(-1.85 -1.27)"><circle class="cls-1" cx="201.35" cy="200.77" r="199.5"/></clipPath><linearGradient id="Безымянный_градиент_85" x1="231.43" y1="236.29" x2="518.32" y2="566.92" gradientUnits="userSpaceOnUse"><stop offset="0.01" stop-color="#5a6484"/><stop offset="0.08" stop-color="#5a6484"/><stop offset="0.14" stop-color="#646f93"/><stop offset="0.32" stop-color="#7d8aba"/><stop offset="0.5" stop-color="#909fd8"/><stop offset="0.67" stop-color="#9eaeee"/><stop offset="0.84" stop-color="#a6b7fb"/><stop offset="1" stop-color="#a9baff"/></linearGradient><clipPath id="clip-path-2" transform="translate(-1.85 -1.27)"><path id="l1" class="cls-1" d="M195.36,108.76h-5v-59c0-3.11,2.26-5.66,5-5.66h0c2.77,0,5,1.3,5,4.41v60.24Z"/></clipPath><clipPath id="clip-path-3" transform="translate(-1.85 -1.27)"><path id="d1" class="cls-1" d="M205.42,108.76h-5V48.52c0-3.11,2.26-4.41,5-4.41h0c2.77,0,5,2.55,5,5.66v59Z"/></clipPath></defs><title>team</title><circle class="cls-2" cx="199.5" cy="199.5" r="199.5"/><g class="cls-3"><polygon class="cls-4" points="568.91 385.23 362.28 591.85 131.15 360.73 193.15 261.73 254.78 71.1 568.91 385.23"/></g><path class="cls-5" d="M251.81,245.4H150.43c-9.7,0-17.63-5.59-17.63-12.42V126.39H269.44V233C269.44,239.81,261.51,245.4,251.81,245.4Z" transform="translate(-1.85 -1.27)"/><path class="cls-5" d="M269.68,126.39V233c0,6.83-7.93,12.42-17.63,12.42H150.67C141,245.4,133,239.81,133,233V126.39" transform="translate(-1.85 -1.27)"/><path class="cls-6" d="M200.34,126.39h69.1V233c0,6.83-7.93,12.42-17.63,12.42H201.12" transform="translate(-1.85 -1.27)"/><rect class="cls-7" x="130.95" y="120.7" width="136.64" height="4.41"/><rect class="cls-8" x="126.55" y="107.48" width="145.46" height="13.22" rx="3" ry="3"/><path class="cls-9" d="M269.16,108.76H200.34V122h68.82a4.57,4.57,0,0,0,4.69-4.41v-4.41A4.57,4.57,0,0,0,269.16,108.76Z" transform="translate(-1.85 -1.27)"/><path class="cls-10" d="M270.72,108.76c0-33.27-31.16-60.24-69.6-60.24s-69.6,27-69.6,60.24" transform="translate(-1.85 -1.27)"/><path class="cls-11" d="M270.72,108.76c0-33.27-31.07-60.24-70.38-60.24v60.24" transform="translate(-1.85 -1.27)"/><path class="cls-12" d="M201.86,102.88" transform="translate(-1.85 -1.27)"/><path class="cls-12" d="M266.51,102.88" transform="translate(-1.85 -1.27)"/><path class="cls-13" d="M145.64,231.16c0,7.42,113.92,8.9,113.92-1.48,0-19.35,9.93-103.9,10.36-103.89.13,0,.08,20.16,0,26.71v81c0,6.9-8,12.54-17.75,12.54H150.08c-9.76,0-17.75-5.64-17.75-12.54-.27-84.63-.18-107.67,0-107.67Z" transform="translate(-1.85 -1.27)"/><path class="cls-14" d="M216.55,151.37c-4.41,3.67,5.26,7.35,11.75,7.35s11.75-3,11.75-6.61-5.26-6.61-11.75-6.61S219.36,149,216.55,151.37Z" transform="translate(-1.85 -1.27)"/><circle class="cls-15" cx="225.72" cy="150.83" r="5.14"/><circle class="cls-16" cx="225.72" cy="150.83" r="2.2"/><path id="l2" class="cls-6" d="M195.36,108.76h-5v-59c0-3.11,2.26-5.66,5-5.66h0c2.77,0,5,1.3,5,4.41v60.24Z" transform="translate(-1.85 -1.27)"/><path id="d2" class="cls-17" d="M205.42,108.76h-5V48.52c0-3.11,2.26-4.41,5-4.41h0c2.77,0,5,2.55,5,5.66v59Z" transform="translate(-1.85 -1.27)"/><g class="cls-18"><circle class="cls-2" cx="198.54" cy="42.83" r="4.41"/></g><g class="cls-19"><circle class="cls-2" cx="198.54" cy="42.83" r="4.41"/></g><circle class="cls-2" cx="198.54" cy="42.83" r="4.41"/><path class="cls-20" d="M241.53,142.55c0,1.62-8.76-1.47-14.53-1.47s-10.45-1.32-10.45-2.94,4.68-2.94,10.45-2.94S241.53,140.93,241.53,142.55Z" transform="translate(-1.85 -1.27)"/><path class="cls-14" d="M181.64,151.37c4.41,3.67-5.26,7.35-11.75,7.35s-11.75-3-11.75-6.61,5.26-6.61,11.75-6.61S178.84,149,181.64,151.37Z" transform="translate(-1.85 -1.27)"/><circle class="cls-15" cx="168.78" cy="150.83" r="5.14"/><circle class="cls-16" cx="168.78" cy="150.83" r="2.2"/><path class="cls-20" d="M156.67,142.55c0,1.62,8.76-1.47,14.53-1.47s10.45-1.32,10.45-2.94S177,135.2,171.2,135.2,156.67,140.93,156.67,142.55Z" transform="translate(-1.85 -1.27)"/><polygon class="cls-21" points="198.54 227.96 155.93 197.11 241.15 197.11 198.54 227.96"/><polygon class="cls-14" points="198.54 227.96 184.34 217.68 212.75 217.68 198.54 227.96"/><polygon class="cls-14" points="198.54 201.52 155.93 197.11 241.15 197.11 198.54 201.52"/><rect class="cls-5" x="183.85" y="244.73" width="29.39" height="17.03"/><path class="cls-22" d="M251.81,361.47h-119V280.66A17.68,17.68,0,0,1,150.43,263H251.81a17.68,17.68,0,0,1,17.63,17.63v80.81Z" transform="translate(-1.85 -1.27)"/><polygon class="cls-14" points="198.54 272.04 213.24 261.76 183.85 261.76 198.54 272.04"/><rect class="cls-23" x="154.46" y="261.76" width="14.69" height="98.44"/><rect class="cls-23" x="227.93" y="261.76" width="14.69" height="98.44"/><rect class="cls-23" x="169.16" y="311.71" width="58.77" height="48.49"/><rect class="cls-24" x="169.16" y="320.53" width="58.77" height="29.39"/><rect class="cls-25" x="169.16" y="320.53" width="58.77" height="1.47"/><rect class="cls-14" x="178.35" y="267.44" width="23.51" height="1.47" transform="translate(186.31 -61.81) rotate(34.99)"/><rect class="cls-14" x="198.92" y="267.44" width="23.51" height="1.47" transform="translate(535.2 365.78) rotate(145.01)"/><circle class="cls-14" cx="198.54" cy="277.92" r="2.94"/><circle class="cls-14" cx="198.54" cy="292.61" r="2.94"/><circle class="cls-14" cx="198.54" cy="307.3" r="2.94"/><circle cx="198.54" cy="292.61" r="1.47"/><circle cx="198.54" cy="307.3" r="1.47"/><circle cx="198.54" cy="277.92" r="1.47"/><path class="cls-26" d="M184.26,341.29a9.89,9.89,0,0,0,.19,2.21q.19.8.7.8t.58-.31a3,3,0,0,0,.12-1,11.36,11.36,0,0,1,.41-3.54,4.17,4.17,0,0,1,3.37-2.84,6.32,6.32,0,0,1-3.65-1.36,3,3,0,0,1-1-2.27,3.12,3.12,0,0,1,1.22-2.28,5.89,5.89,0,0,1,4.11-1.39h9.78v.22a10.7,10.7,0,0,0-3,.26.57.57,0,0,0-.31.19,2.18,2.18,0,0,0-.1.84v12.33a2.38,2.38,0,0,0,.1.88.63.63,0,0,0,.33.28,12.78,12.78,0,0,0,3,.19v.24H190.4v-.21l1.78,0a4,4,0,0,0,1.12-.13.6.6,0,0,0,.36-.3,3,3,0,0,0,.08-.91v-6.43h-2.81a2.85,2.85,0,0,0-1.71.44,2,2,0,0,0-.59,1.71c0,.18,0,.34,0,.5v.5a11.15,11.15,0,0,1-.43,3.83,2.13,2.13,0,0,1-2.19,1.24,1.7,1.7,0,0,1-1.71-.91,5,5,0,0,1-.26-2v-.79Zm9.49-10.46a4.5,4.5,0,0,0-.06-.93.41.41,0,0,0-.3-.3,2.72,2.72,0,0,0-.74-.07h-1.14a3.73,3.73,0,0,0-2.73.83,4,4,0,0,0-.82,2.85,3.08,3.08,0,0,0,1,2.6,4.16,4.16,0,0,0,2.57.65h2.21Z" transform="translate(-1.85 -1.27)"/><path class="cls-26" d="M202.37,333.63a2,2,0,0,0-.33-.79,1.58,1.58,0,0,0-.79-.57v3.61a3.49,3.49,0,0,1,1.61.92,2.89,2.89,0,0,1,.77,2.08,3.31,3.31,0,0,1-.58,2,2.81,2.81,0,0,1-1.8,1.12v1.76H201V342l-.66,0-.57,0v1.7h-.23V342a2.27,2.27,0,0,1-1.16-.54,2.2,2.2,0,0,1-.6-1,2.29,2.29,0,0,1-.09-.61,1.39,1.39,0,0,1,.19-.75c.13-.2.24-.32.34-.34l.26,0a.62.62,0,0,1,.48.2,1.11,1.11,0,0,1,.23.76.68.68,0,0,1-.18.5.54.54,0,0,1-.39.18.39.39,0,0,1-.18,0,.26.26,0,0,1-.11-.11.85.85,0,0,0,0,.17,1.18,1.18,0,0,0,.34.79,1.81,1.81,0,0,0,.89.54v-4.28a3,3,0,0,1-1.36-.89,2.83,2.83,0,0,1-.52-1.8,2.92,2.92,0,0,1,.53-1.79,2.43,2.43,0,0,1,1.34-.9v-.55h.23V332l.4,0h.26l.55,0v-.46h.23V332a1.93,1.93,0,0,1,.76.31,2.44,2.44,0,0,1,.55.57,2,2,0,0,1,.39,1.19q0,.72-.42.92a.55.55,0,0,1-.26.06q-.57,0-.65-.68a.94.94,0,0,1,.11-.58.43.43,0,0,1,.38-.26l.14,0A.35.35,0,0,1,202.37,333.63Zm-2.79,1.81v-3.1a1.63,1.63,0,0,0-.72.49,1.49,1.49,0,0,0-.3,1A1.68,1.68,0,0,0,199.58,335.43Zm.23.09.37.11.45.09.4.08v-3.58l-.53,0h-.33l-.37.06Zm0,6.25.38,0a7.77,7.77,0,0,0,.84,0v-3.84l-.84-.26-.38-.12Zm1.45-.08a1.7,1.7,0,0,0,1-.68,2.13,2.13,0,0,0,.3-1.16,2,2,0,0,0-.29-1.17,2.21,2.21,0,0,0-1-.67Z" transform="translate(-1.85 -1.27)"/><path class="cls-26" d="M216.55,341.29v.79a5,5,0,0,1-.26,2,1.7,1.7,0,0,1-1.71.91,2.13,2.13,0,0,1-2.19-1.24,11.15,11.15,0,0,1-.43-3.83v-.5c0-.16,0-.33,0-.5a2,2,0,0,0-.59-1.71,2.85,2.85,0,0,0-1.71-.44h-2.81v6.43a3,3,0,0,0,.08.91.6.6,0,0,0,.36.3,4,4,0,0,0,1.12.13l1.78,0v.21h-9.73v-.24a12.78,12.78,0,0,0,3-.19.63.63,0,0,0,.33-.28,2.38,2.38,0,0,0,.1-.87V330.82a2.18,2.18,0,0,0-.1-.84.57.57,0,0,0-.31-.19,10.7,10.7,0,0,0-3-.26v-.22h9.78a5.89,5.89,0,0,1,4.11,1.39,3.12,3.12,0,0,1,1.22,2.28,3,3,0,0,1-1,2.27,6.32,6.32,0,0,1-3.65,1.36,4.17,4.17,0,0,1,3.37,2.84,11.36,11.36,0,0,1,.41,3.54,3,3,0,0,0,.12,1q.12.31.58.31t.7-.8a9.89,9.89,0,0,0,.19-2.21Zm-9.68-4.83h2.21a4.16,4.16,0,0,0,2.57-.65,3.08,3.08,0,0,0,1-2.6,4,4,0,0,0-.82-2.85,3.73,3.73,0,0,0-2.73-.83H208a2.72,2.72,0,0,0-.74.07.41.41,0,0,0-.3.3,4.5,4.5,0,0,0-.06.93Z" transform="translate(-1.85 -1.27)"/><polygon class="cls-27" points="198.59 153.25 191 176.79 206.19 176.79 198.59 153.25"/><polygon class="cls-6" points="198.59 153.25 191 176.79 198.73 176.79 198.59 153.25"/><path class="cls-28" d="M193.15,158.35" transform="translate(-1.85 -1.27)"/></svg>